# xmcd
#
# Track frame offsets: 
#        150
#        11655
#        21907
#        34957
#        46632
#        59490
#        71092
#        82447
#        93432
#        105015
#        117237
#        128970
#        143037
#        157387
#        168870
#        181715
#        194077
#        206457
#        219230
#        230325
#        242112
#        253327
#        265500
#        275742
#        286575
#        297127
#        308265
#
# Disc length: 4237 seconds
#
# Revision: 2
# Processed by: cddbd v1.5.2PL0 Copyright (c) Steve Scherf et al.
# Submitted via: ExactAudioCopy v1.0b1
#
DISCID=85108b1b
DTITLE=Lil' Son Jackson - The Complete Imperial Recordings [CD1]
DYEAR=1995
DGENRE=Blues
TTITLE0=Ticket Agent Blues (mono)
TTITLE1=True Love Blues (mono)
TTITLE2=Evening Blues (mono)
TTITLE3=Spending Money Blues (mono)
TTITLE4=Tough Luck Blues (mono)
TTITLE5=Peace Breaking People (mono)
TTITLE6=Rockin' And Rollin' (mono)
TTITLE7=Two Timin' Woman (mono)
TTITLE8=Rocky Road (mono)
TTITLE9=Disgusted (mono)
TTITLE10=Travelin' Alone (mono)
TTITLE11=New Year's Resolution (mono)
TTITLE12=Young Woman's Blues (mono)
TTITLE13=Mr. Blues (mono)
TTITLE14=Time Changes Things (mono)
TTITLE15=Wondering Blues (mono)
TTITLE16=Restless Blues (mono)
TTITLE17=All Alone (mono)
TTITLE18=Everybody's Blues (mono)
TTITLE19=Travelin' Woman (mono)
TTITLE20=Stop For The Red Light (mono)
TTITLE21=Aching Heart (mono)
TTITLE22=Upstairs Boogie (mono)
TTITLE23=All My Love (mono)
TTITLE24=My Little Girl (mono)
TTITLE25=Big Gun Blues (mono)
TTITLE26=Get High Everybody (mono)
EXTD=
EXTT0=
EXTT1=
EXTT2=
EXTT3=
EXTT4=
EXTT5=
EXTT6=
EXTT7=
EXTT8=
EXTT9=
EXTT10=
EXTT11=
EXTT12=
EXTT13=
EXTT14=
EXTT15=
EXTT16=
EXTT17=
EXTT18=
EXTT19=
EXTT20=
EXTT21=
EXTT22=
EXTT23=
EXTT24=
EXTT25=
EXTT26=
PLAYORDER=
